<?xml version="1.0" encoding="UTF-8"?>
<svg version="1.1" xmlns="http://www.w3.org/2000/svg" width="500" height="500">
<path d="M0 0 C29.37 0 58.74 0 89 0 C103.69481072 32.7807316 103.69481072 32.7807316 109.50369263 45.77185059 C115.01658139 58.1009171 120.53496837 70.42749175 126.0625 82.75 C130.73043457 93.15690439 135.37930831 103.57203416 140 114 C141.71067121 111.43399318 142.9701401 109.07015305 144.2578125 106.28515625 C144.70979004 105.30853027 145.16176758 104.3319043 145.62744141 103.32568359 C146.12163574 102.24883301 146.61583008 101.17198242 147.125 100.0625 C147.6514209 98.91861816 148.1778418 97.77473633 148.72021484 96.59619141 C153.78597831 85.55952642 158.70877968 74.45966335 163.62646484 63.35644531 C169.71721736 49.60819485 175.8819107 35.89378225 182.06103516 22.18505859 C182.42784393 21.37118179 182.79465271 20.55730499 183.1725769 19.71876526 C183.85175764 18.21207639 184.53119642 16.7055038 185.21096802 15.19908142 C187.49208618 10.14047312 189.74618637 5.07108066 192 0 C221.04 0 250.08 0 280 0 C279.06764491 4.66177544 277.60396947 8.05239723 275.38671875 12.15234375 C275.02141556 12.83978165 274.65611237 13.52721954 274.27973938 14.23548889 C273.088601 16.47290575 271.88821983 18.70521267 270.6875 20.9375 C269.85565233 22.49519316 269.0242753 24.05313775 268.19335938 25.61132812 C263.38921654 34.60734525 258.53146177 43.57365164 253.61987305 52.51147461 C248.98958059 60.95996289 244.49685256 69.48003737 240 78 C234.6100327 88.21210265 229.17975314 98.3961553 223.6171875 108.515625 C218.98870545 116.96323704 214.49609054 125.48148113 210 134 C204.61540632 144.20192153 199.19438221 154.37807139 193.63256836 164.48486328 C190.51606777 170.16830417 187.4647841 175.88385074 184.44140625 181.6171875 C183.83937881 182.75827972 183.83937881 182.75827972 183.22518921 183.92242432 C181.22167571 187.72191724 179.22237028 191.52355493 177.22851562 195.328125 C176.48705901 196.73702119 175.74552586 198.1458771 175.00390625 199.5546875 C174.6741127 200.18720428 174.34431915 200.81972107 174.00453186 201.47140503 C173.35845921 202.69625046 172.6965132 203.91286322 172.01846313 205.12030029 C170.95119247 207.02544755 170.95119247 207.02544755 170.0418396 209.20440674 C168.89260989 211.5498334 167.90024045 213.20047376 166 215 C162.18510451 216.18929689 158.5026632 216.12237729 154.53125 216.0625 C152.86165222 216.07398071 152.86165222 216.07398071 151.1583252 216.08569336 C148.80814999 216.09113034 146.45785364 216.07641532 144.10791016 216.04296875 C140.51060197 216.00012627 136.92127858 216.04255331 133.32421875 216.09375 C131.03904487 216.0884634 128.75387597 216.07821329 126.46875 216.0625 C125.39467896 216.07869385 124.32060791 216.0948877 123.21398926 216.11157227 C115.98043266 215.92998641 115.98043266 215.92998641 113.31822205 213.40475464 C111.98860934 211.32693479 110.98215562 209.26099132 110 207 C109.34330592 205.7893755 108.67770663 204.58352821 108.00219727 203.38330078 C107.3538844 202.15557668 106.70872079 200.92618539 106.06640625 199.6953125 C105.71209534 199.02278442 105.35778442 198.35025635 104.99273682 197.65734863 C104.23765023 196.22351913 103.48388285 194.78899423 102.73135376 193.3538208 C100.728425 189.53454979 98.71514827 185.7207354 96.703125 181.90625 C96.30055984 181.14245026 95.89799469 180.37865051 95.48323059 179.59170532 C91.96257976 172.91641347 88.39837741 166.26551372 84.8125 159.625 C83.68229167 157.53125 82.55208333 155.4375 81.421875 153.34375 C80.86306641 152.30863281 80.30425781 151.27351562 79.72851562 150.20703125 C76.66262565 144.51867945 73.6125622 138.82184944 70.5625 133.125 C69.93964111 131.96178223 69.31678223 130.79856445 68.67504883 129.60009766 C67.41363053 127.2441976 66.15234358 124.88822727 64.89111328 122.53222656 C61.76209039 116.68742893 58.63087309 110.84380667 55.5 105 C54.24999097 102.66667151 52.99999097 100.33333817 51.75 98 C50.821875 96.2675 50.821875 96.2675 49.875 94.5 C29.25 56 29.25 56 27.37207031 52.49438477 C26.13199879 50.17968163 24.89176652 47.8650646 23.65136719 45.55053711 C20.72453099 40.08872785 17.79933628 34.6260672 14.87988281 29.16030884 C13.50234763 26.5815473 12.12389017 24.0032793 10.74536133 21.42504883 C10.0891382 20.19710519 9.43336594 18.96892049 8.77807617 17.74047852 C7.86882205 16.03600912 6.95788194 14.33243944 6.046875 12.62890625 C5.52963867 11.66025635 5.01240234 10.69160645 4.47949219 9.69360352 C3.47183324 7.85903236 2.41241299 6.05217225 1.30957031 4.27319336 C0 2 0 2 0 0 Z " fill="#86E809" transform="translate(128,148)"/>
</svg>
