<?xml version="1.0" encoding="UTF-8"?>
<svg version="1.1" xmlns="http://www.w3.org/2000/svg" width="1000" height="1000">
<path d="M0 0 C8.56359228 6.74707271 15.36158133 14.38782534 20.8359375 23.796875 C21.38121094 22.90226562 21.92648437 22.00765625 22.48828125 21.0859375 C32.57034868 4.80508157 44.71670392 -8.51392689 64 -13.3203125 C69.2187409 -14.4143984 74.330332 -14.54799045 79.6484375 -14.515625 C80.61894043 -14.50998535 81.58944336 -14.5043457 82.58935547 -14.49853516 C96.61210822 -14.26125956 108.96243983 -10.3400205 119.8359375 -1.203125 C120.1659375 -4.503125 120.4959375 -7.803125 120.8359375 -11.203125 C135.6859375 -11.203125 150.5359375 -11.203125 165.8359375 -11.203125 C165.90383285 6.93920783 165.95902268 25.08143109 165.99137402 43.22385597 C166.00679901 51.64895829 166.02780429 60.07397566 166.06225586 68.49902344 C166.09229273 75.84801271 166.11154419 83.19694043 166.11820298 90.54598939 C166.12209122 94.43208022 166.13113631 98.31799504 166.15312767 102.20402908 C166.17371949 105.87300525 166.1797263 109.54173546 166.17526054 113.21076393 C166.17645999 115.1761911 166.19248192 117.14159241 166.209198 119.10694885 C166.14870887 136.79082471 161.73923035 152.67228408 149.21875 165.6171875 C132.52777433 180.8853259 110.07983001 186.49690684 87.8359375 185.98828125 C66.02941439 184.59697965 44.13673412 180.90108043 28.8359375 163.796875 C19.8359375 152.37444509 19.8359375 152.37444509 19.8359375 146.796875 C20.46983398 146.49507324 21.10373047 146.19327148 21.75683594 145.88232422 C24.70043523 144.48002474 27.64316454 143.07590769 30.5859375 141.671875 C31.63749023 141.17139648 32.68904297 140.67091797 33.77246094 140.15527344 C40.16335954 137.10511676 46.49089278 133.98266831 52.7265625 130.625 C54.8359375 129.796875 54.8359375 129.796875 57.8359375 130.796875 C58.87957919 132.01067566 59.87393035 133.26740549 60.8359375 134.546875 C65.99732665 140.67671243 73.88145526 144.17782316 81.84375 145.00561523 C93.29381168 145.54563775 100.94884298 144.99347417 110.8359375 138.796875 C111.8259375 138.466875 112.8159375 138.136875 113.8359375 137.796875 C114.92024844 136.04820017 114.92024844 136.04820017 115.8359375 133.796875 C116.3515625 132.806875 116.8671875 131.816875 117.3984375 130.796875 C119.68211918 126.03093062 119.95140102 122.34322676 119.8984375 117.046875 C119.88941406 115.87640625 119.88039063 114.7059375 119.87109375 113.5 C119.85949219 112.60796875 119.84789062 111.7159375 119.8359375 110.796875 C119.23007812 111.19519531 118.62421875 111.59351563 118 112.00390625 C102.36098681 121.89257459 81.27323347 123.70993969 63.2734375 119.734375 C44.17210538 113.7184257 32.760472 102.70863783 22.8359375 85.796875 C22.1759375 84.806875 21.5159375 83.816875 20.8359375 82.796875 C20.28679687 83.77914062 20.28679687 83.77914062 19.7265625 84.78125 C11.79265441 98.1555522 1.70379544 107.01885686 -12.1640625 113.796875 C-13.01613281 114.21582031 -13.86820312 114.63476562 -14.74609375 115.06640625 C-35.8755711 124.42224448 -62.6057055 123.16104437 -83.9765625 115.484375 C-99.6423482 109.03037771 -113.49775744 97.91368548 -120.9765625 82.421875 C-121.73969844 80.56044207 -122.46979389 78.68507523 -123.1640625 76.796875 C-123.48375 75.95382812 -123.8034375 75.11078125 -124.1328125 74.2421875 C-129.4360617 57.30125255 -127.29993136 37.73719695 -119.4765625 22.046875 C-116.10641548 16.27433098 -111.8717668 11.51268206 -107.1640625 6.796875 C-106.54917969 6.17039062 -105.93429688 5.54390625 -105.30078125 4.8984375 C-77.78153141 -21.14761909 -30.16910933 -21.00663909 0 0 Z M-72.3515625 34.109375 C-78.6804657 41.846542 -79.52714211 49.86241401 -78.671875 59.56640625 C-77.98731114 63.92128556 -76.59051353 67.15284998 -74.1640625 70.796875 C-73.5865625 71.68375 -73.0090625 72.570625 -72.4140625 73.484375 C-66.07706553 79.99739966 -58.68393483 82.73615115 -49.7265625 83.109375 C-41.66783038 82.90095951 -34.3937981 79.86073862 -28.5703125 74.265625 C-21.52052428 66.66291222 -20.63578724 59.48306434 -20.88671875 49.35546875 C-21.5341079 41.04882764 -24.85526332 35.28482671 -31.1640625 29.796875 C-45.10576551 21.13157036 -60.78425758 21.43637182 -72.3515625 34.109375 Z M68.8359375 35.796875 C64.02811857 43.00860339 63.05495745 50.31609163 63.8359375 58.796875 C65.47710046 65.80229631 68.16748796 72.17546391 73.8359375 76.796875 C81.44848313 81.48903795 88.88363591 83.7777599 97.8359375 82.796875 C105.95729789 80.80075412 112.61773401 77.6157995 117.3359375 70.55078125 C122.17040913 62.18659596 123.51280367 53.47699947 121.1171875 43.93359375 C117.88746613 35.35139059 113.02203255 29.96863498 104.8359375 25.796875 C90.66252248 20.28499138 78.63139509 24.90911818 68.8359375 35.796875 Z " fill="#86E809" transform="translate(309.1640625,412.203125)"/>
<path d="M0 0 C13.95091178 11.91947446 20.66587966 26.26831994 22.70703125 44.453125 C22.70703125 49.733125 22.70703125 55.013125 22.70703125 60.453125 C-7.65296875 60.453125 -38.01296875 60.453125 -69.29296875 60.453125 C-67.17235307 71.05620342 -65.66336475 75.00011425 -57.48828125 81.15625 C-49.53528306 85.85446245 -39.50277436 85.36341581 -30.6015625 84.05859375 C-24.97218497 82.49767511 -20.92306108 79.07045122 -16.5546875 75.29296875 C-12.7542551 72.20142529 -12.7542551 72.20142529 -10.29296875 71.453125 C-7.79412217 72.32843799 -5.6980498 73.24867582 -3.375 74.46875 C-2.38822517 74.96529083 -2.38822517 74.96529083 -1.3815155 75.47186279 C0.00654526 76.17412164 1.39073922 76.88406857 2.77124023 77.60107422 C4.8893297 78.70042524 7.01826936 79.77581585 9.15039062 80.84765625 C10.49679166 81.53248378 11.84251923 82.21863731 13.1875 82.90625 C13.82600388 83.23030823 14.46450775 83.55436646 15.12236023 83.88824463 C19.59020141 86.21946531 19.59020141 86.21946531 20.70703125 88.453125 C8.03117932 106.66025778 -6.63710637 116.93557831 -28.875 120.9453125 C-49.18459038 123.63803402 -71.06031519 122.00752879 -87.93896484 109.20458984 C-91.61634314 106.16955807 -94.96465809 102.8636759 -98.29296875 99.453125 C-99.05609375 98.69902344 -99.81921875 97.94492187 -100.60546875 97.16796875 C-105.93327664 91.60807831 -109.16610969 85.4530254 -112.29296875 78.453125 C-112.62296875 78.453125 -112.95296875 78.453125 -113.29296875 78.453125 C-113.51210938 79.34773438 -113.73125 80.24234375 -113.95703125 81.1640625 C-116.01785027 89.02198219 -118.42389934 95.84595257 -123.29296875 102.453125 C-123.74800781 103.07574219 -124.20304688 103.69835937 -124.671875 104.33984375 C-134.65122442 115.93464921 -151.92147745 119.59846694 -166.29296875 121.453125 C-171.24866116 121.69003337 -176.207143 121.69880634 -181.16796875 121.703125 C-182.20759262 121.70413712 -182.20759262 121.70413712 -183.26821899 121.70516968 C-202.98776963 121.67465156 -222.22955491 119.3332586 -237.44921875 105.4921875 C-251.46885049 91.00174724 -251.76333917 70.13193555 -251.5859375 51.171875 C-251.58032476 49.37870646 -251.57606263 47.58553324 -251.57307434 45.7923584 C-251.56175737 41.13009369 -251.53240768 36.46812068 -251.4989624 31.80596924 C-251.46250123 26.18144252 -251.44903759 20.55681689 -251.43160248 14.9322052 C-251.40275905 6.43897717 -251.34518142 -2.05361407 -251.29296875 -10.546875 C-236.44296875 -10.546875 -221.59296875 -10.546875 -206.29296875 -10.546875 C-206.24398437 -5.53757812 -206.195 -0.52828125 -206.14453125 4.6328125 C-206.10910919 7.82293579 -206.07312885 11.01303353 -206.03515625 14.203125 C-205.97505348 19.25679699 -205.91692033 24.31043357 -205.87109375 29.36425781 C-205.8339809 33.44277224 -205.78755379 37.52108768 -205.73490524 41.59943008 C-205.71649839 43.14855553 -205.70134095 44.69772341 -205.68962479 46.24691391 C-205.72331087 63.1440546 -205.72331087 63.1440546 -199.29296875 78.453125 C-194.13839039 83.47553469 -187.22095514 84.06235726 -180.29296875 84.453125 C-174.14422636 84.04937721 -168.9449549 82.66206485 -164.29296875 78.453125 C-157.27417007 68.41298914 -157.96741893 55.64906264 -157.87890625 43.9453125 C-157.86016159 42.36775741 -157.84058582 40.790212 -157.82022095 39.212677 C-157.76924157 35.09303536 -157.72943462 30.97336134 -157.69207764 26.85357666 C-157.64472373 21.89316489 -157.58327468 16.93290948 -157.52423096 11.97262573 C-157.43643638 4.46618981 -157.366374 -3.04022253 -157.29296875 -10.546875 C-142.44296875 -10.546875 -127.59296875 -10.546875 -112.29296875 -10.546875 C-111.96296875 1.993125 -111.63296875 14.533125 -111.29296875 27.453125 C-109.31296875 23.823125 -107.33296875 20.193125 -105.29296875 16.453125 C-102.57679716 12.82193107 -99.48966161 9.66546236 -96.29296875 6.453125 C-95.55433594 5.6796875 -94.81570313 4.90625 -94.0546875 4.109375 C-70.23101748 -19.27385742 -25.99514232 -20.89546824 0 0 Z M-65.29296875 24.453125 C-67.52030337 28.11514847 -68.29296875 31.11159016 -68.29296875 35.453125 C-52.78296875 35.453125 -37.27296875 35.453125 -21.29296875 35.453125 C-23.47933678 26.70765287 -25.8236997 22.16973952 -33.48046875 17.515625 C-44.7974669 13.24031459 -57.1582703 14.9736661 -65.29296875 24.453125 Z " fill="#86E809" transform="translate(731.29296875,411.546875)"/>
<path d="M0 0 C7.93858429 3.96929215 15.58684044 7.9809684 23.1875 12.5 C31.56890542 17.43829038 39.99772883 22.27288912 48.5 27 C57.72954349 32.1358927 66.87237939 37.40213102 75.98046875 42.75 C83.10528666 46.92244239 90.28556642 50.98475744 97.5 55 C108.8367275 61.31273739 120.05775319 67.80854596 131.2421875 74.38671875 C133.91372925 75.94953283 136.59522885 77.4934826 139.28125 79.03125 C140.08369141 79.49370117 140.88613281 79.95615234 141.71289062 80.43261719 C143.19787615 81.28797392 144.68600026 82.13791315 146.17773438 82.98144531 C147.81869481 83.93195148 149.41553337 84.95804097 151 86 C151 86.66 151 87.32 151 88 C150.30777344 88.3810791 149.61554688 88.7621582 148.90234375 89.15478516 C135.48409987 96.55117222 122.13326746 104.03211875 108.92382812 111.79736328 C101.83227599 115.95669651 94.68391745 120.00256043 87.5 124 C79.2779741 128.575664 71.1141857 133.23570748 63 138 C53.86791515 143.36195808 44.66263926 148.57560911 35.40600586 153.71923828 C26.66904301 158.58802738 18.03294342 163.62008616 9.4375 168.734375 C8.49003906 169.29382813 7.54257812 169.85328125 6.56640625 170.4296875 C5.73052979 170.92710449 4.89465332 171.42452148 4.03344727 171.93701172 C2 173 2 173 0 173 C0 158.81 0 144.62 0 130 C-12.64973383 137.04360179 -25.26398372 144.10870805 -37.75 151.4375 C-60.88404923 165 -60.88404923 165 -64 165 C-64 113.19 -64 61.38 -64 8 C-59.73365634 9.42211455 -56.85545362 10.48641425 -53.1484375 12.6953125 C-52.22780518 13.23889404 -51.30717285 13.78247559 -50.35864258 14.3425293 C-48.8817395 15.22485229 -48.8817395 15.22485229 -47.375 16.125 C-45.24162427 17.38536606 -43.10747568 18.64442459 -40.97265625 19.90234375 C-39.84746582 20.5660498 -38.72227539 21.22975586 -37.56298828 21.91357422 C-31.34729782 25.56454536 -25.07690579 29.12102555 -18.8125 32.6875 C-16.46460857 34.024328 -14.11698011 35.36161328 -11.76953125 36.69921875 C-10.77542236 37.26471436 -9.78131348 37.83020996 -8.75708008 38.4128418 C-6.15367288 39.91153569 -3.57587969 41.45447218 -1 43 C-0.67 28.81 -0.34 14.62 0 0 Z M10 18 C6.97154565 36.0247854 6.97154565 36.0247854 11.98486328 52.68017578 C17.51576568 57.24531464 24.01731587 59.90025312 30.62109375 62.56542969 C36.02873792 64.86133411 41.00202933 67.84545988 46.0625 70.8125 C47.948793 71.88066116 49.83676922 72.94585633 51.7265625 74.0078125 C56.48335476 76.70108516 61.22753169 79.41305666 65.9375 82.1875 C66.56470947 82.55012939 67.19191895 82.91275879 67.83813477 83.28637695 C69.26082356 84.13415061 70.6371046 85.05910696 72 86 C72 86.66 72 87.32 72 88 C71.30777344 88.3810791 70.61554688 88.7621582 69.90234375 89.15478516 C56.21807281 96.69781132 42.59137803 104.31264904 29.1328125 112.25439453 C22.81540696 115.97571327 16.44551389 119.48426515 10 123 C10 133.89 10 144.78 10 156 C27.82176379 146.27903794 45.57772732 136.48863673 63.07885742 126.20117188 C70.16941917 122.04215537 77.31705446 117.99709202 84.5 114 C100.16310493 105.27943393 115.6460391 96.25364278 131 87 C127.63919478 84.18834098 124.29529955 81.91403311 120.44921875 79.8203125 C119.37099854 79.22871338 118.29277832 78.63711426 117.18188477 78.02758789 C116.02873779 77.39973389 114.87559082 76.77187988 113.6875 76.125 C111.22968023 74.77591503 108.7745654 73.42196774 106.3203125 72.06640625 C105.70086258 71.72445724 105.08141266 71.38250824 104.44319153 71.03019714 C98.59837961 67.79478842 92.82246046 64.44653153 87.0625 61.0625 C78.48877508 56.0292753 69.88582145 51.05080605 61.25 46.125 C60.38371979 45.63080063 60.38371979 45.63080063 59.49993896 45.12661743 C56.55256435 43.44543512 53.60474547 41.7650337 50.65673828 40.08496094 C44.94533987 36.82939259 39.23835591 33.56609477 33.53088379 30.3036499 C27.63862618 26.93557894 27.63862618 26.93557894 21.74365234 23.57226562 C20.06683169 22.61135398 18.39416367 21.64308933 16.72900391 20.66210938 C13.57866492 18.65237093 13.57866492 18.65237093 10 18 Z " fill="#86E809" transform="translate(837,376)"/>
<path d="M0 0 C17.49 0 34.98 0 53 0 C58.89741115 12.45009021 64.69432962 24.90034135 70.25 37.5 C71.60848339 40.57331137 72.96826461 43.64604772 74.328125 46.71875 C74.64744995 47.44094727 74.9667749 48.16314453 75.29577637 48.90722656 C77.82535748 54.62243811 80.39482917 60.31880701 83 66 C86.16892439 62.27800572 87.92292617 58.06097626 89.87890625 53.6328125 C90.25047348 52.80280731 90.62204071 51.97280212 91.00486755 51.11764526 C92.19547207 48.45551143 93.37919953 45.79038732 94.5625 43.125 C95.33090291 41.40213079 96.09977913 39.6794726 96.86914062 37.95703125 C97.63548828 36.24128906 98.40183594 34.52554688 99.19140625 32.7578125 C104.08144452 21.81779188 109.04132617 10.90908242 114 0 C131.49 0 148.98 0 167 0 C165.41404201 4.75787398 163.63677201 8.8790169 161.2890625 13.25 C160.92512894 13.93611359 160.56119537 14.62222717 160.18623352 15.32913208 C159.00375508 17.5552375 157.81455068 19.7776669 156.625 22 C155.79862902 23.55177124 154.97254063 25.103693 154.14672852 26.65576172 C149.33477678 35.68790529 144.47065642 44.69049283 139.54492188 53.66113281 C135.16544534 61.65233318 130.89289342 69.69887565 126.625 77.75 C121.18398853 88.00930695 115.73850184 98.2660006 110.25 108.5 C109.69006348 109.54897461 109.13012695 110.59794922 108.55322266 111.67871094 C107.51887594 113.6034733 106.46544769 115.51815588 105.3894043 117.41992188 C103.96506209 119.93167363 103.96506209 119.93167363 103.05786133 122.47070312 C101.95658104 125.01319614 101.22811375 126.33021379 99 128 C93.70158148 128.98947789 88.53561696 128.75271387 83.1875 128.5 C81.71689311 128.45984691 80.24618157 128.42334924 78.77539062 128.390625 C75.18141146 128.3027065 71.59136828 128.16481436 68 128 C62.7909523 119.01313345 57.77572377 109.94520861 52.93255615 100.75622559 C51.08507661 97.25148429 49.22956877 93.75099357 47.375 90.25 C46.81702225 89.19604034 46.81702225 89.19604034 46.24777222 88.12078857 C42.81899801 81.64824385 39.35350715 75.1959682 35.875 68.75 C30.44325891 58.6826963 25.03123456 48.60503373 19.63793945 38.51708984 C16.42393023 32.50911511 13.19549348 26.5097679 9.94140625 20.5234375 C9.28376498 19.3112463 8.62621144 18.0990075 7.96875 16.88671875 C6.72092237 14.58795433 5.46974778 12.2910028 4.21484375 9.99609375 C3.66054688 8.97386719 3.10625 7.95164062 2.53515625 6.8984375 C1.79857788 5.54758057 1.79857788 5.54758057 1.04711914 4.16943359 C0 2 0 2 0 0 Z " fill="#86E809" transform="translate(37,401)"/>
<path d="M0 0 C6.93 0 13.86 0 21 0 C21 12.54 21 25.08 21 38 C14.07 38 7.14 38 0 38 C0 25.46 0 12.92 0 0 Z " fill="#86E809" transform="translate(642,587)"/>
<path d="M0 0 C6.27 0 12.54 0 19 0 C19 12.54 19 25.08 19 38 C12.73 38 6.46 38 0 38 C0 25.46 0 12.92 0 0 Z " fill="#86E809" transform="translate(614,587)"/>
<path d="M0 0 C2.97 0 5.94 0 9 0 C10.32 4.62 11.64 9.24 13 14 C13.33 9.38 13.66 4.76 14 0 C15.98 0 17.96 0 20 0 C20 12.54 20 25.08 20 38 C17.69 38 15.38 38 13 38 C10.70309901 31.40251844 8.79467095 24.75138119 7 18 C6.67 24.6 6.34 31.2 6 38 C4.02 38 2.04 38 0 38 C0 25.46 0 12.92 0 0 Z " fill="#86E809" transform="translate(904,584)"/>
<path d="M0 0 C4.95 0 9.9 0 15 0 C19.50777052 5.63471314 19.50777052 5.63471314 19.53125 11.4375 C19.53640625 12.66210938 19.5415625 13.88671875 19.546875 15.1484375 C19.52367187 17.05496094 19.52367187 17.05496094 19.5 19 C19.51546875 20.27101563 19.5309375 21.54203125 19.546875 22.8515625 C19.54171875 24.07617188 19.5365625 25.30078125 19.53125 26.5625 C19.52673828 27.67753906 19.52222656 28.79257812 19.51757812 29.94140625 C19 33 19 33 15 38 C10.05 38 5.1 38 0 38 C0 25.46 0 12.92 0 0 Z M7 6 C7 14.58 7 23.16 7 32 C8.65 31.67 10.3 31.34 12 31 C12 23.08 12 15.16 12 7 C10.35 6.67 8.7 6.34 7 6 Z " fill="#86E809" transform="translate(756,584)"/>
<path d="M0 0 C4.95 0 9.9 0 15 0 C15 12.54 15 25.08 15 38 C10.05 38 5.1 38 0 38 C0 25.46 0 12.92 0 0 Z " fill="#86E809" transform="translate(590,587)"/>
<path d="M0 0 C3.38939556 2.13679285 4.72582557 3.1774767 6 7 C6.26089707 11.28740859 6.23142922 15.58050818 6.25 19.875 C6.270625 21.05964844 6.29125 22.24429688 6.3125 23.46484375 C6.31765625 24.60824219 6.3228125 25.75164063 6.328125 26.9296875 C6.34214355 28.49565674 6.34214355 28.49565674 6.35644531 30.09326172 C5.94348695 33.46085228 5.01234219 35.28917348 3 38 C-0.72579089 40.48386059 -2.58711402 40.3804212 -7 40 C-11.6 37.8 -11.6 37.8 -13 35 C-13.23452516 30.75367332 -13.22839303 26.50349476 -13.24023438 22.25146484 C-13.24993158 20.13989748 -13.2809507 18.02930726 -13.3125 15.91796875 C-13.3190312 14.57292244 -13.32428121 13.22786917 -13.328125 11.8828125 C-13.3374707 10.65965332 -13.34681641 9.43649414 -13.35644531 8.17626953 C-12.97213065 4.7516574 -12.43899643 3.3882733 -10 1 C-6.39427296 -0.20190901 -3.7897565 -0.32670315 0 0 Z M-6 7 C-6 15.58 -6 24.16 -6 33 C-4.35 32.67 -2.7 32.34 -1 32 C-1 24.08 -1 16.16 -1 8 C-2.65 7.67 -4.3 7.34 -6 7 Z " fill="#86E809" transform="translate(890,583)"/>
<path d="M0 0 C4.6 2.2 4.6 2.2 6 5 C6.23452516 9.24632668 6.22839303 13.49650524 6.24023438 17.74853516 C6.24993158 19.86010252 6.2809507 21.97069274 6.3125 24.08203125 C6.3190312 25.42707756 6.32428121 26.77213083 6.328125 28.1171875 C6.3374707 29.34034668 6.34681641 30.56350586 6.35644531 31.82373047 C5.97213065 35.2483426 5.43899643 36.6117267 3 39 C-0.60572704 40.20190901 -3.2102435 40.32670315 -7 40 C-10.38939556 37.86320715 -11.72582557 36.8225233 -13 33 C-13.26089707 28.71259141 -13.23142922 24.41949182 -13.25 20.125 C-13.270625 18.94035156 -13.29125 17.75570312 -13.3125 16.53515625 C-13.31765625 15.39175781 -13.3228125 14.24835937 -13.328125 13.0703125 C-13.3374707 12.02633301 -13.34681641 10.98235352 -13.35644531 9.90673828 C-12.94348695 6.53914772 -12.01234219 4.71082652 -10 2 C-6.27420911 -0.48386059 -4.41288598 -0.3804212 0 0 Z M-5 7 C-6.26181095 8.03792772 -6.26181095 8.03792772 -6.11352539 10.31665039 C-6.10828857 11.31688232 -6.10305176 12.31711426 -6.09765625 13.34765625 C-6.09443359 14.42724609 -6.09121094 15.50683594 -6.08789062 16.61914062 C-6.07951172 17.75544922 -6.07113281 18.89175781 -6.0625 20.0625 C-6.05798828 21.20267578 -6.05347656 22.34285156 -6.04882812 23.51757812 C-6.03699747 26.34510351 -6.0205141 29.1725264 -6 32 C-4.35 32.33 -2.7 32.66 -1 33 C-1 24.42 -1 15.84 -1 7 C-2.32 7 -3.64 7 -5 7 Z " fill="#86E809" transform="translate(741,583)"/>
<path d="M0 0 C14 0 14 0 18 3 C18.42578125 6.25 18.42578125 6.25 18.3125 10 C18.28800781 11.2375 18.26351562 12.475 18.23828125 13.75 C18 17 18 17 17 20 C17.50213802 21.60684166 18.00582397 23.21322581 18.51953125 24.81640625 C19.4709775 29.14045871 19.14331214 33.59713267 19 38 C16.69 38 14.38 38 12 38 C11.93941406 37.15695312 11.87882813 36.31390625 11.81640625 35.4453125 C11.73261719 34.34960938 11.64882813 33.25390625 11.5625 32.125 C11.48128906 31.03445313 11.40007813 29.94390625 11.31640625 28.8203125 C11.16998297 26.05271029 11.16998297 26.05271029 10 24 C9.01 23.67 8.02 23.34 7 23 C7 27.95 7 32.9 7 38 C4.69 38 2.38 38 0 38 C0 25.46 0 12.92 0 0 Z M7 6 C7 9.63 7 13.26 7 17 C8.32 16.67 9.64 16.34 11 16 C12.19988045 10.71800407 12.19988045 10.71800407 10 6 C9.01 6 8.02 6 7 6 Z " fill="#86E809" transform="translate(702,584)"/>
<path d="M0 0 C2.31 0 4.62 0 7 0 C7 10.56 7 21.12 7 32 C8.32 31.67 9.64 31.34 11 31 C11.33 20.77 11.66 10.54 12 0 C14.31 0 16.62 0 19 0 C19.0743839 4.46570449 19.12871171 8.93107684 19.16479492 13.3972168 C19.17984353 14.91518438 19.20028738 16.43310876 19.22631836 17.95092773 C19.26287653 20.13796677 19.27976523 22.32442896 19.29296875 24.51171875 C19.3086792 25.82615967 19.32438965 27.14060059 19.34057617 28.49487305 C18.97729199 32.23370533 18.27997856 34.05373547 16 37 C12.27420911 39.48386059 10.41288598 39.3804212 6 39 C3.125 37.6875 3.125 37.6875 1 36 C-0.18975795 32.43072615 -0.12478155 29.20053028 -0.09765625 25.48828125 C-0.0962413 24.76005661 -0.09482635 24.03183197 -0.09336853 23.28153992 C-0.08777659 20.95848461 -0.07522562 18.63552612 -0.0625 16.3125 C-0.05748396 14.73632952 -0.05292123 13.16015752 -0.04882812 11.58398438 C-0.0378098 7.72261902 -0.02055074 3.86132592 0 0 Z " fill="#86E809" transform="translate(783,584)"/>
<path d="M0 0 C4.29 0 8.58 0 13 0 C13 12.54 13 25.08 13 38 C8.71 38 4.42 38 0 38 C0 25.46 0 12.92 0 0 Z " fill="#86E809" transform="translate(568,587)"/>
<path d="M0 0 C2.0625 1.625 2.0625 1.625 3 4 C3.1875 7.75 3.1875 7.75 3 11 C1.02 11 -0.96 11 -3 11 C-3.33 9.68 -3.66 8.36 -4 7 C-5.32 6.67 -6.64 6.34 -8 6 C-7.13203735 10.72557443 -6.13274842 13.16853836 -2.5625 16.4375 C1.07901258 19.85046577 3.25760234 22.99357476 4 28 C3.7640451 31.87243638 2.86252145 34.97775236 0.3125 38 C-2.98628266 39.42650061 -5.44052558 39.37468152 -9 39 C-13.6 36.8 -13.6 36.8 -15 34 C-15.13415472 31.3276379 -15.04318541 28.67749512 -15 26 C-13.02 26 -11.04 26 -9 26 C-8.67 27.98 -8.34 29.96 -8 32 C-6.68 32 -5.36 32 -4 32 C-4.42465452 26.80556521 -5.88369294 24.50319312 -9.5 20.8125 C-13.96833363 16.20983355 -15.30725536 13.56638027 -15.22265625 7.00390625 C-14.89755556 4.078 -13.84651883 2.25685634 -12 0 C-7.83158556 -1.38947148 -4.25006587 -1.00513662 0 0 Z " fill="#86E809" transform="translate(947,584)"/>
<path d="M0 0 C2.0625 1.5 2.0625 1.5 3 4 C3.21858937 7.0186151 3.17421815 9.98021872 3 13 C1.02 13 -0.96 13 -3 13 C-3.33 11.02 -3.66 9.04 -4 7 C-5.32 6.67 -6.64 6.34 -8 6 C-8 14.58 -8 23.16 -8 32 C-6.02 31.505 -6.02 31.505 -4 31 C-3.67 28.36 -3.34 25.72 -3 23 C-1.02 23 0.96 23 3 23 C3.77277888 32.80570536 3.77277888 32.80570536 0.9375 37.1875 C-2.75197936 39.46398727 -4.72937462 39.61008934 -9 39 C-13.6 36.8 -13.6 36.8 -15 34 C-15.23452516 29.75367332 -15.22839303 25.50349476 -15.24023438 21.25146484 C-15.24993158 19.13989748 -15.2809507 17.02930726 -15.3125 14.91796875 C-15.3190312 13.57292244 -15.32428121 12.22786917 -15.328125 10.8828125 C-15.3374707 9.65965332 -15.34681641 8.43649414 -15.35644531 7.17626953 C-14.97213065 3.7516574 -14.43899643 2.3882733 -12 0 C-7.82338766 -1.39220411 -4.25896707 -0.99137967 0 0 Z " fill="#86E809" transform="translate(825,584)"/>
<path d="M0 0 C4.62 0 9.24 0 14 0 C18 4 18 4 18.53125 7.49609375 C18.5209375 8.79675781 18.510625 10.09742188 18.5 11.4375 C18.5103125 12.73558594 18.520625 14.03367187 18.53125 15.37109375 C17.91789787 19.56082999 17.23833374 21.27159868 14 24 C11.69 24 9.38 24 7 24 C7 28.62 7 33.24 7 38 C4.69 38 2.38 38 0 38 C0 25.46 0 12.92 0 0 Z M7 6 C7 9.96 7 13.92 7 18 C8.32 17.67 9.64 17.34 11 17 C11 13.7 11 10.4 11 7 C9.68 6.67 8.36 6.34 7 6 Z " fill="#86E809" transform="translate(676,584)"/>
<path d="M0 0 C2.97 0 5.94 0 9 0 C9 12.54 9 25.08 9 38 C6.03 38 3.06 38 0 38 C0 25.46 0 12.92 0 0 Z " fill="#86E809" transform="translate(551,587)"/>
<path d="M0 0 C6.27 0 12.54 0 19 0 C19 1.98 19 3.96 19 6 C17.02 6 15.04 6 13 6 C13 16.56 13 27.12 13 38 C10.69 38 8.38 38 6 38 C6 27.44 6 16.88 6 6 C4.02 6 2.04 6 0 6 C0 4.02 0 2.04 0 0 Z " fill="#86E809" transform="translate(835,584)"/>
<path d="M0 0 C2.31 0 4.62 0 7 0 C7 12.54 7 25.08 7 38 C4.69 38 2.38 38 0 38 C0 25.46 0 12.92 0 0 Z " fill="#86E809" transform="translate(535,587)"/>
<path d="M0 0 C2.31 0 4.62 0 7 0 C7 12.54 7 25.08 7 38 C4.69 38 2.38 38 0 38 C0 25.46 0 12.92 0 0 Z " fill="#86E809" transform="translate(861,584)"/>
</svg>
